# xmcd
# 
# Track frame offsets:
#     150
#     18698
#     41481
#     59865
#     83189
#     100511
#     105504
#     125518
#     135682
#     152715
#     171953
#     190740
#     196817
# 
# Disc length: 2897
# 
# Revision: 0
# Processed by: cddbd v1.5.2PL0 Copyright (c) Steve Scherf et al.
# Submitted via: fre:ac v1.0.27
# 
DISCID=ad0b4f0d
DTITLE=Trevor Baker - Road Less Traveled
DYEAR=2013
DGENRE=Country
TTITLE0=The Biggest Haul
TTITLE1=I Don't Play Well (Misfit)
TTITLE2=Wish I Had Your Life
TTITLE3=Storybook Romance
TTITLE4=Letter To Self
TTITLE5=No Regrets (Spoken Track)
TTITLE6=I'm So Small
TTITLE7=Double Life Lie
TTITLE8=The Unapproachable God
TTITLE9=The Big Dogs Rule
TTITLE10=Don't Get Me Started
TTITLE11=No Time For God (Spoken Track)
TTITLE12=Do You Ever
EXTD=
EXTT0=
EXTT1=
EXTT2=
EXTT3=
EXTT4=
EXTT5=
EXTT6=
EXTT7=
EXTT8=
EXTT9=
EXTT10=
EXTT11=
EXTT12=
PLAYORDER=
